<svg width="9" height="15" viewBox="0 0 9 15" fill="none" xmlns="http://www.w3.org/2000/svg">
<path d="M3.05509 7.50317L8.66656 1.89146C8.82107 1.73732 8.90607 1.53122 8.90607 1.31146C8.90607 1.09159 8.82107 0.88561 8.66656 0.73122L8.17485 0.239756C8.02058 0.0851219 7.81436 0 7.59461 0C7.37485 0 7.16888 0.0851219 7.01449 0.239756L0.333144 6.92098C0.178144 7.07585 0.0932656 7.2828 0.0938753 7.5028C0.0932656 7.72378 0.178022 7.93049 0.333144 8.08549L7.00827 14.7602C7.16266 14.9149 7.36863 15 7.58851 15C7.80827 15 8.01424 14.9149 8.16875 14.7602L8.66034 14.2688C8.98022 13.9489 8.98022 13.4282 8.66034 13.1084L3.05509 7.50317Z" fill="black"/>
</svg>
